<svg height="512.00052pt" viewBox="0 0 512.00052 512.00052" width="512.00052pt" xmlns="http://www.w3.org/2000/svg"><path d="m2.5 123.179688c-3.332031-3.332032-3.332031-8.738282 0-12.066407l108.613281-108.613281c3.332031-3.332031 8.734375-3.332031 12.066407 0l386.320312 386.320312c3.332031 3.332032 3.332031 8.738282 0 12.070313l-108.609375 108.609375c-3.335937 3.332031-8.738281 3.332031-12.070313 0zm0 0" fill="#ffb13b"/><path d="m123.25 99.117188c-6.664062-6.664063-17.46875-6.664063-24.136719 0-6.664062 6.664062-6.664062 17.46875 0 24.136718 6.667969 6.664063 17.472657 6.664063 24.136719 0 6.667969-6.667968 6.667969-17.472656 0-24.136718zm0 0" fill="#ff7045"/><path d="m364.613281 444.746094c-1.976562 0-3.957031-.753906-5.464843-2.261719l-96.542969-96.542969c-3.019531-3.019531-3.019531-7.910156 0-10.929687 3.019531-3.015625 7.910156-3.015625 10.925781 0l96.542969 96.542969c3.019531 3.019531 3.019531 7.910156 0 10.925781-1.507813 1.511719-3.484375 2.265625-5.460938 2.265625zm0 0" fill="#ff8e38"/><path d="m171.523438 251.660156c-1.976563 0-3.953126-.753906-5.460938-2.265625l-96.542969-96.542969c-3.019531-3.015624-3.019531-7.910156 0-10.925781 3.015625-3.015625 7.90625-3.019531 10.925781 0l96.542969 96.542969c3.015625 3.019531 3.015625 7.910156 0 10.929688-1.507812 1.503906-3.488281 2.261718-5.464843 2.261718zm0 0" fill="#ff8e38"/><path d="m509.5 388.820312-386.320312-386.320312c-3.332032-3.332031-8.734376-3.332031-12.066407 0l-5.300781 5.296875 381.023438 381.023437c3.332031 3.332032 3.332031 8.734376 0 12.070313l-103.3125 103.3125 5.296874 5.296875c3.332032 3.332031 8.734376 3.332031 12.070313 0l108.609375-108.609375c3.332031-3.335937 3.332031-8.738281 0-12.070313zm0 0" fill="#ff8e38"/><g fill="#ff7045"><path d="m176.988281 56.308594-12.070312 12.066406c-1.507813 1.507812-3.484375 2.265625-5.460938 2.265625-1.976562 0-3.953125-.757813-5.464843-2.265625-3.015626-3.015625-3.015626-7.910156 0-10.925781l12.070312-12.066407zm0 0"/><path d="m213.191406 92.511719-12.066406 12.070312c-1.507812 1.507813-3.488281 2.261719-5.464844 2.261719-1.976562 0-3.953125-.753906-5.460937-2.261719-3.019531-3.019531-3.019531-7.910156 0-10.929687l12.066406-12.066406zm0 0"/><path d="m249.394531 128.714844-12.066406 12.070312c-1.507813 1.507813-3.484375 2.261719-5.464844 2.261719-1.976562 0-3.953125-.753906-5.460937-2.261719-3.019532-3.019531-3.019532-7.910156 0-10.925781l12.066406-12.070313zm0 0"/><path d="m394.210938 273.53125-12.070313 12.066406c-1.507813 1.511719-3.484375 2.265625-5.460937 2.265625-1.980469 0-3.957032-.753906-5.464844-2.265625-3.015625-3.015625-3.015625-7.90625 0-10.925781l12.070312-12.066406"/><path d="m430.414062 309.734375-12.066406 12.070313c-1.507812 1.507812-3.488281 2.261718-5.464844 2.261718-1.976562 0-3.953124-.753906-5.464843-2.261718-3.015625-3.019532-3.015625-7.910157.003906-10.925782l12.066406-12.070312zm0 0"/><path d="m466.617188 345.9375-12.066407 12.070312c-1.507812 1.507813-3.488281 2.261719-5.464843 2.261719-1.976563 0-3.953126-.753906-5.460938-2.261719-3.019531-3.019531-3.019531-7.910156-.003906-10.929687l12.070312-12.066406zm0 0"/></g><path d="m436.644531 171.898438-309.972656 309.976562c-1.371094 1.367188-3.167969 2.230469-5.09375 2.445312l-95.035156 10.558594c-5.433594.605469-10.027344-3.988281-9.421875-9.421875l10.558594-95.035156c.214843-1.925781 1.078124-3.722656 2.445312-5.089844l305.847656-305.847656zm0 0" fill="#549cff"/><path d="m335.972656 79.484375-10.847656 10.847656 88.855469 81.570313-309.972657 309.972656c-1.371093 1.367188-3.167968 2.230469-5.09375 2.445312l-78.648437 8.738282c1.691406 1.359375 3.902344 2.085937 6.277344 1.820312l95.035156-10.558594c1.925781-.214843 3.722656-1.078124 5.09375-2.445312l309.972656-309.976562zm0 0" fill="#576dff"/><path d="m436.644531 171.898438 48.289063-48.289063c13.332031-13.332031 13.332031-34.945313 0-48.273437l-48.269532-48.273438c-13.332031-13.328125-34.941406-13.328125-48.273437 0l-45.710937 45.710938zm0 0" fill="#ff82a5"/><path d="m78.398438 441.328125c-1.976563 0-3.953126-.753906-5.460938-2.261719-3.019531-3.019531-3.019531-7.910156 0-10.929687l237.585938-237.582031c3.015624-3.019532 7.90625-3.019532 10.925781 0 3.015625 3.015624 3.015625 7.90625 0 10.925781l-237.585938 237.585937c-1.511719 1.507813-3.488281 2.261719-5.464843 2.261719zm0 0" fill="#576dff"/><path d="m484.9375 75.335938-48.273438-48.273438c-9.59375-9.589844-23.472656-12.277344-35.46875-8.066406 4.675782 1.640625 9.066407 4.332031 12.804688 8.066406l48.273438 48.273438c13.328124 13.328124 13.328124 34.941406 0 48.273437l-36.65625 36.65625 11.027343 11.632813 48.289063-48.289063c13.332031-13.332031 13.332031-34.945313.003906-48.273437zm0 0" fill="#ff6176"/><path d="m26.542969 494.878906 95.035156-10.558594c1.925781-.214843 3.722656-1.078124 5.09375-2.445312l-96.546875-96.542969c-1.367188 1.367188-2.230469 3.164063-2.445312 5.089844l-10.558594 95.035156c-.605469 5.433594 3.988281 10.027344 9.421875 9.421875zm0 0" fill="#ffb13b"/><path d="m364.257812 244.285156 72.386719-72.386718-100.671875-92.414063-68.257812 68.257813zm0 0" fill="#b5efff"/><path d="m389.863281 196.015625-36.9375 36.941406 11.332031 11.328125 72.386719-72.386718-11.816406-10.847657zm0 0" fill="#9df"/><path d="m352.1875 63.269531c-6.664062-6.667969-17.46875-6.667969-24.136719 0-6.664062 6.664063-6.664062 17.46875 0 24.132813l96.542969 96.546875c6.667969 6.664062 17.472656 6.664062 24.136719 0 6.667969-6.667969 6.667969-17.472657 0-24.136719zm0 0" fill="#ffb13b"/><path d="m448.734375 159.8125-96.546875-96.542969c-6.386719-6.390625-16.566406-6.636719-23.269531-.785156.292969.257813.585937.503906.863281.785156l96.546875 96.542969c6.664063 6.664062 6.664063 17.46875 0 24.136719-.28125.277343-.574219.527343-.867187.78125 6.703124 5.851562 16.882812 5.601562 23.269531-.78125 6.667969-6.667969 6.667969-17.472657.003906-24.136719zm0 0" fill="#ff8e38"/><path d="m20.769531 452.613281-3.648437 32.84375c-.605469 5.433594 3.988281 10.027344 9.425781 9.421875l32.839844-3.648437zm0 0" fill="#5a6384"/><path d="m315.984375 155.46875c-1.976563 0-3.953125-.753906-5.460937-2.261719-3.019532-3.019531-3.019532-7.910156 0-10.925781l12.066406-12.066406c3.019531-3.019532 7.910156-3.019532 10.925781 0 3.019531 3.015625 3.019531 7.90625 0 10.925781l-12.066406 12.066406c-1.507813 1.507813-3.488281 2.261719-5.464844 2.261719zm0 0" fill="#9df"/><path d="m340.121094 179.605469c-1.976563 0-3.957032-.753907-5.464844-2.261719-3.015625-3.015625-3.015625-7.910156 0-10.925781l12.066406-12.070313c3.019532-3.015625 7.914063-3.015625 10.929688 0 3.015625 3.019532 3.015625 7.910156 0 10.925782l-12.066406 12.070312c-1.511719 1.507812-3.488282 2.261719-5.464844 2.261719zm0 0" fill="#9df"/><path d="m364.257812 203.742188c-1.976562 0-3.957031-.753907-5.464843-2.261719-3.019531-3.019531-3.019531-7.910157 0-10.925781l12.066406-12.070313c3.019531-3.015625 7.910156-3.015625 10.929687 0 3.015626 3.019531 3.015626 7.910156 0 10.925781l-12.066406 12.070313c-1.511718 1.507812-3.488281 2.261719-5.464844 2.261719zm0 0" fill="#9df"/><path d="m115.339844 470.542969-11.332032 11.332031c-1.371093 1.367188-3.167968 2.230469-5.09375 2.445312l-78.648437 8.738282c.226563.179687.460937.347656.703125.507812.085938.054688.175781.101563.265625.15625.164063.097656.328125.195313.5.28125.105469.050782.214844.101563.320313.148438.164062.074218.324218.144531.492187.210937.113281.042969.230469.085938.347656.125.167969.054688.339844.105469.511719.152344.117188.03125.238281.0625.359375.089844.179687.039062.363281.070312.546875.097656.117188.015625.234375.039063.351562.050781.207032.023438.414063.03125.621094.039063.105469.003906.203125.011719.308594.011719.3125 0 .628906-.015626.949219-.050782l95.035156-10.558594c.480469-.054687.957031-.148437 1.417969-.28125 1.378906-.398437 2.648437-1.136718 3.675781-2.167968zm0 0" fill="#ff8e38"/><path d="m25.59375 494.929688c.3125 0 .628906-.015626.949219-.050782l32.84375-3.648437-2.265625-2.265625-36.855469 4.09375c.226563.179687.460937.347656.703125.507812.085938.054688.175781.101563.261719.15625.128906.074219.261719.148438.394531.21875.035156.019532.070312.042969.105469.0625.105469.050782.214843.101563.324219.148438.160156.074218.324218.148437.488281.210937.117187.042969.234375.085938.347656.125.171875.054688.339844.105469.511719.152344.121094.03125.238281.0625.359375.089844.183593.039062.367187.070312.550781.097656.117188.015625.234375.039063.351562.050781.207032.023438.414063.03125.625.039063.101563.003906.203126.011719.304688.011719zm0 0" fill="#47507a"/></svg>