<svg id="Layer_1" enable-background="new 0 0 100 100" height="512" viewBox="0 0 100 100" width="512" xmlns="http://www.w3.org/2000/svg"><g id="_x34_3.Google_Adwords"><path d="m57.193 15.502c-7.021-4.054-15.985-1.653-20.039 5.37l-25.162 43.583c-6.494 11.247 3.912 24.878 16.501 21.504 3.785-1.014 6.948-3.442 8.907-6.835l25.162-43.583c4.045-7.005 1.636-15.994-5.369-20.039z" fill="#fabc04"/><path d="m88.038 64.455-25.163-43.583c-1.959-3.393-5.123-5.821-8.907-6.835-12.593-3.375-22.991 10.262-16.501 21.504l25.163 43.583c4.053 7.019 13.015 9.425 20.039 5.37 7.004-4.045 9.413-13.034 5.369-20.039z" fill="#3c8bd9"/><path d="m38.865 67.993c-2.098-7.831-10.134-12.472-17.966-10.373-12.593 3.374-14.78 20.383-3.538 26.874 11.216 6.475 24.897-3.84 21.504-16.501z" fill="#34a852"/></g></svg>