<svg height="512" viewBox="0 0 64 64" width="512" xmlns="http://www.w3.org/2000/svg"><g id="Layer_45" data-name="Layer 45"><path d="m44.23 47.63a38.281 38.281 0 0 0 2.09-7.63h-14.32v6a45.113 45.113 0 0 1 12.23 1.63z" fill="#7ed63e"/><path d="m32.47 58.99c4.85-.27 9.13-4.69 11.76-11.36a31.238 31.238 0 0 1 7.29 3.02 26.883 26.883 0 0 1 -19.05 8.34z" fill="#4e901e"/><path d="m44.23 47.63a38.281 38.281 0 0 0 2.09-7.63h11.48a26.826 26.826 0 0 1 -6.28 10.65 31.238 31.238 0 0 0 -7.29-3.02z" fill="#5eac24"/><path d="m32.47 58.99c-.16.01-.31.01-.47.01v-13a45.113 45.113 0 0 1 12.23 1.63c-2.63 6.67-6.91 11.09-11.76 11.36z" fill="#5eac24"/><path d="m19.77 16.37a38.281 38.281 0 0 0 -2.09 7.63h14.32v-6a45.113 45.113 0 0 1 -12.23-1.63z" fill="#a4e276"/><path d="m32 18v6h14.32a38.281 38.281 0 0 0 -2.09-7.63 45.113 45.113 0 0 1 -12.23 1.63z" fill="#91dc5a"/><path d="m19.77 47.63a38.281 38.281 0 0 1 -2.09-7.63h14.32v6a45.113 45.113 0 0 0 -12.23 1.63z" fill="#91dc5a"/><path d="m12.485 13.352a26.981 26.981 0 0 0 -6.285 10.648h11.48a38.281 38.281 0 0 1 2.09-7.63 31.213 31.213 0 0 1 -7.285-3.018z" fill="#b6eb92"/><path d="m31.394 5.025c-4.794.345-9.019 4.738-11.624 11.345a45.113 45.113 0 0 0 12.23 1.63v-13c-.2 0-.4.02-.606.025z" fill="#b6eb92"/><path d="m32.606 5.025c-.206-.005-.406-.025-.606-.025v13a45.113 45.113 0 0 0 12.23-1.63c-2.605-6.607-6.83-11-11.624-11.345z" fill="#a4e276"/><path d="m44.23 16.37a31.213 31.213 0 0 0 7.285-3.018 26.909 26.909 0 0 0 -18.909-8.327c4.794.345 9.019 4.738 11.624 11.345z" fill="#91dc5a"/><path d="m44.23 16.37a38.281 38.281 0 0 1 2.09 7.63h11.48a26.981 26.981 0 0 0 -6.285-10.648 31.213 31.213 0 0 1 -7.285 3.018z" fill="#7ed63e"/><path d="m32.47 5.01c-.16-.01-.31-.01-.47-.01.2 0 .4.02.606.025-.046-.003-.09-.012-.136-.015z" fill="#9bc9ff"/><path d="m31.394 5.025a26.909 26.909 0 0 0 -18.909 8.327 31.213 31.213 0 0 0 7.285 3.018c2.605-6.607 6.83-11 11.624-11.345z" fill="#dcf4ca"/><path d="m31.53 5.01c-.046 0-.09.012-.136.015.206-.005.406-.025.606-.025-.16 0-.31 0-.47.01z" fill="#9bc9ff"/><path d="m31.53 58.99c-4.85-.27-9.13-4.69-11.76-11.36a31.238 31.238 0 0 0 -7.29 3.02 26.883 26.883 0 0 0 19.05 8.34z" fill="#91dc5a"/><path d="m19.77 47.63a38.281 38.281 0 0 1 -2.09-7.63h-11.48a26.826 26.826 0 0 0 6.28 10.65 31.238 31.238 0 0 1 7.29-3.02z" fill="#a4e276"/><path d="m31.53 58.99c.16.01.31.01.47.01v-13a45.113 45.113 0 0 0 -12.23 1.63c2.63 6.67 6.91 11.09 11.76 11.36z" fill="#7ed63e"/><rect fill="#2488ff" height="16" rx="2" width="58" x="3" y="24"/><path d="m59 24h-2a2 2 0 0 1 2 2v12a2 2 0 0 1 -2 2h2a2 2 0 0 0 2-2v-12a2 2 0 0 0 -2-2z" fill="#006df0"/><path d="m54.93 57-6.93 4-7-12.12-4.7 3.86 1.46-17.48 15.86 7.48-5.69 2.14z" fill="#ed1c24"/><g fill="#f1f2f2"><path d="m37.242 27.03a1 1 0 0 0 -1.212.727l-1.344 5.378-1.786-3.582a1.042 1.042 0 0 0 -1.79 0l-1.791 3.582-1.349-5.378a1 1 0 0 0 -1.94.486l2 8a1 1 0 0 0 1.865.2l2.105-4.207 2.1 4.211a1 1 0 0 0 1.865-.2l2-8a1 1 0 0 0 -.723-1.217z"/><path d="m51.242 27.03a1 1 0 0 0 -1.212.727l-1.344 5.378-1.786-3.582a1.042 1.042 0 0 0 -1.79 0l-1.791 3.582-1.349-5.378a1 1 0 1 0 -1.94.486l2 8a1 1 0 0 0 1.865.2l2.105-4.207 2.1 4.211a1 1 0 0 0 1.865-.2l2-8a1 1 0 0 0 -.723-1.217z"/><path d="m23.243 27.03a1 1 0 0 0 -1.213.727l-1.344 5.378-1.786-3.582a1.042 1.042 0 0 0 -1.79 0l-1.791 3.582-1.349-5.378a1 1 0 1 0 -1.94.486l2 8a1 1 0 0 0 1.865.2l2.105-4.207 2.105 4.211a1 1 0 0 0 1.865-.2l2-8a1 1 0 0 0 -.727-1.217z"/></g></g></svg>