<svg id="Layer_1" height="512" viewBox="0 0 136 136" width="512" xmlns="http://www.w3.org/2000/svg"><g><g id="XMLID_11017_"><circle cx="68" cy="68" fill="#ee4b68" r="64"/></g><g id="XMLID_4475_"><g id="XMLID_4449_"><g id="XMLID_4453_"><g id="XMLID_3828_"><path d="m87.2 117.4v11.6c-6 2-12.5 3-19.2 3-3.8 0-7.6-.3-11.2-1-1.5-.3-3-.6-4.5-1-.3-.1-.7-.2-1-.3-.6-.1-1.1-.3-1.7-.5-2.7-.8-5.3-1.8-7.9-3-.1 0-.3-.1-.4-.2-1-.4-2-.9-2.9-1.4-3.2-1.7-6.3-3.6-9.1-5.8-4.4-3.3-8.3-7.2-11.7-11.5 5.7-2.4 12-4.7 12.3-4.8l1.9.9.4 1.3.1.4 3.5 12.2h20.4l3.6-12.6.4-1.3 1.9-.9c.6.2 20 7.3 21.9 10 .1.1 1.6.9 3.2 4.9z" fill="#343843"/></g><g id="XMLID_4470_"><path d="m58 107.8c-8 0-15.9 0-23.9 0 2-6.2 2-12.7 0-18.9h23.9c-2.1 6.1-2.1 12.7 0 18.9z" fill="#f1b97c"/></g><g id="XMLID_4225_"><path d="m60.6 104.8-6.1 18.6-2.2 6.6c-.3-.1-.7-.2-1-.3-.6-.1-1.1-.3-1.7-.5-2.7-.8-5.3-1.8-7.9-3-.1 0-.3-.1-.4-.2-1-.4-2-.9-2.9-1.4l-2.3-7.3-3.8-12.2-.1-.4h28.4z" fill="#fcfcfc"/></g><g id="XMLID_3581_"><path d="m51.3 129.8c-.6-.1-1.1-.3-1.7-.5-2.7-.8-5.3-1.8-7.9-3-.1 0-.3-.1-.4-.2l.2-.9 1.3-7.8.8-5.3h4.9l.9 5.3 1.3 7.8z" fill="#f1582e"/></g><g id="XMLID_4466_"><path d="m46 104.8 10.5-5.7-2.7 11.9c0 .1-2.7-3.2-7.8-6.2z" fill="#e7e7e8"/></g><g id="XMLID_4465_"><path d="m51.5 108.8-3 3.4h-4.9l-3-3.4c1.3-1.1 3.1-2.6 5.4-3.9 2.3 1.3 4.2 2.7 5.5 3.9z" fill="#e34d30"/></g><g id="XMLID_3806_"><path d="m59 116.6 4.1 1.8-6.3 12.6c-1.5-.3-3-.6-4.5-1-.3-.1-.7-.2-1-.3-.6-.1-1.1-.3-1.7-.5l.9-4.1 1.8-7.8 1.4-6.3.7-3.3.7-3 1.2-5.4.1-.2 5.6 3.5 1.7 10.6z" fill="#646c79"/></g><g id="XMLID_4463_"><path d="m46 104.8-10.5-5.7 2.7 11.9c.1.1 2.8-3.2 7.8-6.2z" fill="#e7e7e8"/></g><g id="XMLID_3727_"><path d="m41.3 126.2c-1-.4-2-.9-2.9-1.4-3.2-1.7-6.3-3.6-9.1-5.8l-.3-.6 4.1-1.8-4.9-3.4 1.7-10.6 5.7-3.5v.2l1.3 5.5.7 3 .7 3.3 1.4 6.3 1.8 7.8.3 1.1c-.2 0-.3 0-.5-.1z" fill="#646c79"/></g><g id="XMLID_4454_"><g id="XMLID_4461_"><ellipse cx="63.8" cy="75.2" fill="#f1b97c" rx="2.9" ry="6.1" transform="matrix(.985 .173 -.173 .985 13.973 -9.9)"/></g><g id="XMLID_4460_"><ellipse cx="27.9" cy="75.2" fill="#f1b97c" rx="2.9" ry="6.1" transform="matrix(-.985 .173 -.173 -.985 68.322 144.442)"/></g><g id="XMLID_4458_"><path d="m64.2 71.4c0 15.7-11.9 27.8-18.4 27.8s-18.4-12.1-18.4-27.8c0-10.6 8.2-24.3 18.4-24.3 10.1.1 18.4 13.7 18.4 24.3z" fill="#f8cfa3"/></g><g id="XMLID_4457_"><path d="m63 67.8c0 2.1-.4 4-1 5.9l2.6-.4c1.4-2.8 2.1-5.9 2.1-9.2 0-2.5-.4-4.8-1.2-7-1.1.8-2.6 1.7-4.5 2.6 1.3 2.4 2 5.1 2 8.1z" fill="#343843"/></g><g id="XMLID_4456_"><path d="m67.2 55.3c0 .3-.6.9-1.7 1.7s-2.6 1.7-4.5 2.6c-11.1 5.2-24.7 3.1-30.2-.4-1.4 2.5-2.3 5.4-2.3 8.5 0 2.1.4 4 1 5.9l-2.5-.3c-6.8-13.8 3.3-30.2 18.8-30.2 9 0 16.5 5.5 21.4 12.2z" fill="#343843"/></g></g></g></g><g id="XMLID_4447_"><g id="XMLID_4488_"><path d="m131.1 39.7c0 16.4-13.3 29.8-29.8 29.8-4.7 0-9.1-1.1-13.1-3l-16.2 5.1 4.7-15c-3.3-4.8-5.2-10.6-5.2-16.8 0-16.4 13.3-29.8 29.8-29.8s29.8 13.3 29.8 29.7z" fill="#e9bb06"/></g><g id="XMLID_4473_"><g id="XMLID_4477_"><path d="m117.3 50.5c-1.5 1.9-3.4 3.3-5.9 4.2-2.4.9-5.3 1.4-8.7 1.4-3.5 0-6.6-.6-9.3-1.7s-4.8-2.9-6.3-5.3-2.3-5.1-2.3-8.1c0-3.1.7-6 2-8.8s3.3-5 6-6.6 5.9-2.3 9.7-2.3c4.5 0 8 1.2 10.5 3.5s3.8 5.2 3.8 8.7c0 1.9-.4 3.8-1.3 5.6s-2 3.2-3.5 4.3c-1.1.8-2 1.2-2.6 1.2-.2 0-.4-.1-.6-.3s-.2-.4-.2-.8c0-.3.1-.9.3-1.9l3.2-15.2h-5.6l-.5 2.4c-1.2-1.9-3-2.9-5.6-2.9-3.5 0-6.4 1.7-8.7 5-1.9 2.7-2.8 5.8-2.8 9.1 0 2.7.8 4.8 2.3 6.5 1.5 1.6 3.5 2.4 5.8 2.4 2.2 0 4.1-.8 5.8-2.4.2.8.6 1.4 1.2 1.8s1.5.6 2.6.6c4.3 0 7.9-1.8 10.7-5.5 2.2-2.9 3.3-6.2 3.3-9.8 0-1.8-.3-3.6-.8-5.2-.3-1.1-.8-2.1-1.4-3.1-1.5-2.5-3.6-4.5-6.3-5.9-.1-.1-.3-.1-.4-.2-2.7-1.3-5.7-1.9-9.1-1.9-4.2 0-7.9.9-11.2 2.6s-5.8 4.3-7.7 7.7-2.8 7.1-2.8 11.1c0 3.6.8 7 2.5 10 1.7 3.1 4.2 5.4 7.5 7 3.4 1.6 7.4 2.4 12.1 2.4 4.8 0 8.9-.9 12.2-2.8 2.9-1.6 5.1-3.9 6.5-6.7h-4.4zm-13.3-9.1c-.5 1.6-1.2 2.9-1.9 3.8-.5.6-1.1 1.1-1.6 1.3-.7.4-1.5.6-2.3.6-1.1 0-2-.4-2.7-1.3s-1.1-2.2-1.1-4c0-1.3.3-2.9.8-4.6s1.3-3.1 2.3-4 2.2-1.4 3.4-1.4c1.1 0 2.1.4 2.8 1.3s1.1 2.1 1.1 3.7c0 1.4-.3 2.9-.8 4.6z" fill="#fcfcfc"/></g></g></g></g></g></svg>