<svg height="512pt" viewBox="0 -22 512 512" width="512pt" xmlns="http://www.w3.org/2000/svg"><path d="m430.660156 132.027344v194.089844c0 31.921874-25.972656 57.898437-57.902344 57.898437h-169.597656l-126.355468 84.601563v-84.601563h-18.902344c-31.929688 0-57.902344-25.976563-57.902344-57.898437v-194.089844c0-31.921875 25.972656-57.894532 57.902344-57.894532h314.855468c31.929688 0 57.902344 25.972657 57.902344 57.894532zm0 0" fill="#f4d34e"/><path d="m430.660156 132.027344v194.089844c0 31.921874-25.972656 57.898437-57.902344 57.898437h-157.425781v-309.882813h157.425781c31.929688 0 57.902344 25.972657 57.902344 57.894532zm0 0" fill="#ffa41f"/><path d="m248.328125 246.246094v28.628906l-12.578125 1.371094h-84.25v-30zm0 0" fill="#ffa001"/><path d="m248.328125 246.246094v28.628906l-12.578125 1.371094h-20.421875v-30zm0 0" fill="#f87f02"/><path d="m93.917969 174.328125h173.847656v30h-173.847656zm0 0" fill="#ffa001"/><path d="m215.332031 174.328125h52.433594v30h-52.433594zm0 0" fill="#f87f02"/><path d="m93.917969 246.246094h33.332031v30h-33.332031zm0 0" fill="#ffa001"/><path d="m512 77.222656-189.597656 189.597656-86.65625 9.425782 9.433594-86.648438 189.597656-189.597656zm0 0" fill="#39689e"/><path d="m512 77.222656-189.597656 189.597656-86.65625 9.425782 237.640625-237.636719zm0 0" fill="#224370"/><path d="m322.402344 266.820312-86.65625 9.425782 9.433594-86.648438zm0 0" fill="#f9c5b9"/><path d="m384.539062 50.234375 50.234376-50.23046875 77.222656 77.22265575-50.234375 50.230469zm0 0" fill="#fe4a4a"/><path d="m283.789062 228.203125 38.613282 38.617187-86.65625 9.425782zm0 0" fill="#ffb19e"/><path d="m423.148438 88.84375 50.230468-50.234375 38.617188 38.617187-50.234375 50.230469zm0 0" fill="#e80b6a"/><path d="m263.847656 273.191406-28.101562 3.054688 3.0625-28.09375zm0 0" fill="#39689e"/><path d="m263.851562 273.195312-15.523437 1.679688-12.578125 1.371094 15.578125-15.582032zm0 0" fill="#224370"/></svg>