<svg height="512" viewBox="0 0 64 64" width="512" xmlns="http://www.w3.org/2000/svg"><g id="website-web-browser-imange-design"><path d="m61 11v48a2.006 2.006 0 0 1 -2 2h-54a2.006 2.006 0 0 1 -2-2v-48z" fill="#bddbff"/><path d="m9 17h29v20h-29z" fill="#2488ff"/><path d="m58 11v48a2.006 2.006 0 0 1 -2 2h3a2.006 2.006 0 0 0 2-2v-48z" fill="#9bc9ff"/><path d="m59 3h-54a2 2 0 0 0 -2 2v6h58v-6a2 2 0 0 0 -2-2z" fill="#006df0"/><path d="m59 3h-3a2 2 0 0 1 2 2v6h3v-6a2 2 0 0 0 -2-2z" fill="#005ece"/><path d="m21.389 31.578.001.002-.001-.002-3.389 5.422h20l-10-16z" fill="#5eac24"/><path d="m21.389 31.578-4.389-6.578-8 12h9z" fill="#4e901e"/><path d="m26 43h12v12h-12z" fill="#ffcd00"/><path d="m43 43h12v12h-12z" fill="#006df0"/><path d="m9 43h12v12h-12z" fill="#ed1c24"/><g fill="#57a4ff"><path d="m48 18h7a1 1 0 0 0 0-2h-7a1 1 0 0 0 0 2z"/><path d="m43 22h12a1 1 0 0 0 0-2h-12a1 1 0 0 0 0 2z"/><path d="m43 26h12a1 1 0 0 0 0-2h-12a1 1 0 0 0 0 2z"/><path d="m43 30h12a1 1 0 0 0 0-2h-12a1 1 0 0 0 0 2z"/><path d="m43 34h12a1 1 0 0 0 0-2h-12a1 1 0 0 0 0 2z"/><path d="m43 38h7a1 1 0 0 0 0-2h-7a1 1 0 0 0 0 2z"/></g><path d="m8 6h-1a1 1 0 0 0 0 2h1a1 1 0 0 0 0-2z" fill="#f1f2f2"/><path d="m13 6h-1a1 1 0 0 0 0 2h1a1 1 0 0 0 0-2z" fill="#f1f2f2"/><path d="m18 6h-1a1 1 0 0 0 0 2h1a1 1 0 0 0 0-2z" fill="#f1f2f2"/><path d="m57 6h-1a1 1 0 0 0 0 2h1a1 1 0 0 0 0-2z" fill="#f1f2f2"/><path d="m43 18h1a1 1 0 0 0 0-2h-1a1 1 0 0 0 0 2z" fill="#57a4ff"/><path d="m55 36h-1a1 1 0 0 0 0 2h1a1 1 0 0 0 0-2z" fill="#57a4ff"/><path d="m52 6h-24a1 1 0 0 0 0 2h24a1 1 0 0 0 0-2z" fill="#f1f2f2"/></g></svg>