<svg id="Flat" height="512" viewBox="0 0 128 128" width="512" xmlns="http://www.w3.org/2000/svg"><path d="m83.015 16.832a4.141 4.141 0 0 0 -3.4 4.769l10.237 60.828a4.14 4.14 0 0 0 8.165-1.374l-10.234-60.827a4.139 4.139 0 0 0 -4.768-3.396z" fill="#dbe2eb"/><path d="m87.782 20.226 10.233 60.829a4.137 4.137 0 0 1 -8.152 1.412 4.342 4.342 0 0 0 .813-.055 4.141 4.141 0 0 0 3.4-4.768l-10.237-60.868a4.138 4.138 0 0 1 3.943 3.45z" fill="#bac2d3" opacity=".5"/><path d="m31.765 48.853 1.916 11.385 1.919 11.384c36.4-5.691 54.132 10.094 54.132 10.094l-5.056-30.057-5.057-30.059s-11.59 20.719-47.854 27.253z" fill="#dbe2eb"/><path d="m79.623 21.6 10.113 60.117s-17.736-15.787-54.136-10.09l-1.1-6.49c36.081-5.45 53.591 10.183 53.591 10.183l-8.935-53.114c.309-.397.467-.606.467-.606z" fill="#bac2d3" opacity=".5"/><path d="m15.378 49.31h27.85a0 0 0 0 1 0 0v24.22a0 0 0 0 1 0 0h-27.85a5.3 5.3 0 0 1 -5.3-5.3v-13.618a5.3 5.3 0 0 1 5.3-5.3z" fill="#ef5361" transform="matrix(.986 -.166 .166 .986 -9.82 5.273)"/><path d="m43.987 64.568 1.013 6.045-27.447 4.618a5.3 5.3 0 0 1 -6.116-4.354l-1.017-6.046a5.311 5.311 0 0 0 6.116 4.355z" fill="#da2a47"/><path d="m24.391 74.08 5.522 32.82a5.174 5.174 0 1 0 10.205-1.716l-5.518-32.821z" fill="#ef5361"/><path d="m34.592 72.365 5.522 32.824a5.17 5.17 0 0 1 -9.493 3.588 4.375 4.375 0 0 0 .812-.066 5.169 5.169 0 0 0 4.24-5.954l-5-29.733z" fill="#da2a47"/><g fill="#3d4c70"><path d="m97.718 32.787a.878.878 0 0 1 -.686-1.427l5.143-6.432a.879.879 0 0 1 1.374 1.1l-5.149 6.429a.871.871 0 0 1 -.682.33z"/><path d="m109.569 65.467a.875.875 0 0 1 -.463-.133l-6.993-4.35a.879.879 0 0 1 .928-1.493l6.994 4.351a.879.879 0 0 1 -.466 1.625z"/><path d="m107.851 39.47a.879.879 0 0 1 -.349-1.686l7.561-3.267a.879.879 0 1 1 .7 1.614l-7.563 3.269a.879.879 0 0 1 -.349.07z"/><path d="m118.122 52h-.061l-8.218-.561a.879.879 0 0 1 .12-1.753l8.218.561a.879.879 0 0 1 -.059 1.753z"/></g></svg>