<svg id="Capa_1" enable-background="new 0 0 512 512" height="512" viewBox="0 0 512 512" width="512" xmlns="http://www.w3.org/2000/svg"><g><g><g><g><g><path d="m405.614 297.053v204.645c0 5.687-4.615 10.302-10.302 10.302h-278.622c-5.687 0-10.302-4.615-10.302-10.302v-204.645z" fill="#64b9fc"/><path d="m405.614 297.053v204.645c0 5.687-4.615 10.302-10.302 10.302h-29.865c5.687 0 10.302-4.615 10.302-10.302v-204.645z" fill="#31a7fb"/><path d="m106.388 30.648h299.226v281.858h-299.226z" fill="#fde784"/><path d="m375.749 30.648h29.865v281.858h-29.865z" fill="#fddd45"/><path d="m405.613 46.099v-35.797c0-5.69-4.612-10.302-10.302-10.302h-278.623c-5.69 0-10.302 4.612-10.302 10.302v35.797z" fill="#eef4f5"/><path d="m405.613 10.302v35.799h-29.865v-35.799c0-5.687-4.616-10.302-10.302-10.302h29.865c5.686 0 10.302 4.615 10.302 10.302z" fill="#cbe5e7"/></g><g><g id="XMLID_530_"><path d="m142.022 30.829c-4.267 0-7.726-3.459-7.726-7.726v-.107c0-4.267 3.459-7.726 7.726-7.726s7.726 3.459 7.726 7.726v.107c0 4.267-3.459 7.726-7.726 7.726z" fill="#8fbdc1"/></g><g id="XMLID_529_"><path d="m165.419 30.829c-4.267 0-7.726-3.459-7.726-7.726v-.107c0-4.267 3.459-7.726 7.726-7.726s7.726 3.459 7.726 7.726v.107c0 4.267-3.459 7.726-7.726 7.726z" fill="#8fbdc1"/></g><g id="XMLID_528_"><path d="m188.816 30.829c-4.267 0-7.726-3.459-7.726-7.726v-.107c0-4.267 3.459-7.726 7.726-7.726s7.726 3.459 7.726 7.726v.107c0 4.267-3.459 7.726-7.726 7.726z" fill="#8fbdc1"/></g></g><g><g><path d="m255.999 488.574c-1.977 0-3.955-.754-5.463-2.263l-7.218-7.218c-3.017-3.018-3.018-7.909-.001-10.927 3.018-3.017 7.909-3.018 10.927 0l1.755 1.755 1.755-1.755c3.017-3.017 7.909-3.016 10.927 0 3.017 3.018 3.017 7.909 0 10.927l-7.218 7.218c-1.509 1.509-3.486 2.263-5.464 2.263z" fill="#1c96f9"/></g></g><g><path d="m190.266 101.044h-44.485c-3.983 0-7.211-3.229-7.211-7.211v-12.459c0-3.983 3.229-7.211 7.211-7.211h44.485c3.983 0 7.211 3.229 7.211 7.211v12.459c0 3.982-3.228 7.211-7.211 7.211z" fill="#eef4f5"/><path d="m197.475 81.374v12.455c0 3.987-3.224 7.211-7.211 7.211h-19.914c3.987 0 7.211-3.224 7.211-7.211v-12.455c0-3.987-3.224-7.211-7.211-7.211h19.913c3.987 0 7.212 3.224 7.212 7.211z" fill="#cbe5e7"/><g><g><path d="m283.464 83.88h-17.878c-4.267 0-7.726-3.459-7.726-7.726s3.459-7.726 7.726-7.726h17.878c4.267 0 7.726 3.459 7.726 7.726s-3.459 7.726-7.726 7.726z" fill="#eab124"/></g><g><path d="m328.447 83.88h-17.878c-4.267 0-7.726-3.459-7.726-7.726s3.459-7.726 7.726-7.726h17.878c4.267 0 7.726 3.459 7.726 7.726s-3.459 7.726-7.726 7.726z" fill="#eab124"/></g><g><path d="m373.429 83.88h-17.879c-4.267 0-7.726-3.459-7.726-7.726s3.459-7.726 7.726-7.726h17.879c4.267 0 7.726 3.459 7.726 7.726s-3.458 7.726-7.726 7.726z" fill="#eab124"/></g></g></g></g><g><g><g><path d="m302.372 358.948h-49.599c-4.267 0-7.726-3.459-7.726-7.726s3.459-7.726 7.726-7.726h49.599c4.267 0 7.726 3.459 7.726 7.726s-3.459 7.726-7.726 7.726z" fill="#1c96f9"/></g><g><g><path d="m350.988 392.447h-98.215c-4.267 0-7.726-3.459-7.726-7.726s3.459-7.726 7.726-7.726h98.215c4.267 0 7.726 3.459 7.726 7.726 0 4.266-3.459 7.726-7.726 7.726z" fill="#1c96f9"/></g><g><path d="m350.988 418.939h-98.215c-4.267 0-7.726-3.459-7.726-7.726s3.459-7.726 7.726-7.726h98.215c4.267 0 7.726 3.459 7.726 7.726s-3.459 7.726-7.726 7.726z" fill="#1c96f9"/></g><g><path d="m350.988 445.432h-98.215c-4.267 0-7.726-3.459-7.726-7.726s3.459-7.726 7.726-7.726h98.215c4.267 0 7.726 3.459 7.726 7.726s-3.459 7.726-7.726 7.726z" fill="#1c96f9"/></g></g></g></g></g><g><path d="m204.516 437.705h-47.192c-5.69 0-10.302-4.612-10.302-10.302v-65.877c0-5.69 4.612-10.302 10.302-10.302h47.192c5.69 0 10.302 4.612 10.302 10.302v65.877c0 5.69-4.612 10.302-10.302 10.302z" fill="#fdd330"/><path d="m214.816 361.524v65.878c0 5.687-4.615 10.302-10.302 10.302h-28.928c5.687 0 10.302-4.615 10.302-10.302v-65.878c0-5.687-4.615-10.302-10.302-10.302h28.928c5.687 0 10.302 4.615 10.302 10.302z" fill="#e7b729"/></g></g><g><g><g><g><path d="m208.489 267.497c2.627 2.72 5.511 5.048 8.571 6.974l-37.385 37.488c-2.802-2.256-5.522-4.687-8.118-7.314-38.518-38.961-37.56-102.029 1.185-140.764l47.285-47.296 37.035 37.035-47.564 47.563c-18.203 18.204-18.934 47.843-1.009 66.314z" fill="#1c96f9"/></g><path d="m209.498 201.174c-15.185 15.185-18.214 38.323-8.406 56.299-4.007-2.194-7.768-5.027-11.126-8.489-17.925-18.471-17.183-48.109 1.02-66.313l47.563-47.563 18.512 18.512z" fill="#1785f8"/><g><path d="m360.43 256.989-48.058 48.058c-2.678 2.689-5.491 5.161-8.386 7.458h-123.642c-3.039-2.421-5.985-5.027-8.787-7.86l36.932-37.138c18.234 18.801 48.388 18.976 66.848.515l48.068-48.058z" fill="#fb54b6"/><g><path d="m360.441 256.999-48.068 48.058c-2.678 2.678-5.481 5.151-8.375 7.448h-55.918c16.782-4.224 32.667-12.857 45.771-25.961l48.068-48.068z" fill="#fb33a8"/></g></g><g><path d="m375.59 241.839-22.881 22.881-37.035-37.035 22.881-22.881c3.148-3.148 8.257-3.148 11.397-.007l25.638 25.638c3.147 3.147 3.147 8.256 0 11.404z" fill="#eef4f5"/><g><path d="m375.59 241.839-22.881 22.881-18.517-18.517 22.881-22.881c3.148-3.148 3.14-8.249 0-11.39l.022.007 18.496 18.496c3.146 3.147 3.146 8.256-.001 11.404z" fill="#cbe5e7"/></g><path d="m272.213 138.462-22.881 22.881-37.028-37.028 22.881-22.881c3.148-3.148 8.242-3.148 11.39 0l25.638 25.638c3.148 3.148 3.148 8.242 0 11.39z" fill="#eef4f5"/><path d="m272.213 138.462-22.881 22.881-18.51-18.51 22.881-22.881c3.148-3.148 3.141-8.249-.007-11.397l18.517 18.518c3.148 3.147 3.148 8.241 0 11.389z" fill="#cbe5e7"/><path d="m315.672 227.683 37.033 37.033" fill="#eef4f5"/></g></g></g><g><g><path d="m306.439 147.11c-3.512 0-6.689-2.409-7.519-5.976-.967-4.156 1.618-8.309 5.774-9.277l7.789-1.813-3.073-6.761c-.958-2.108-.921-4.534.103-6.611 1.023-2.077 2.924-3.586 5.179-4.111l16.972-3.952c4.159-.966 8.31 1.617 9.278 5.773s-1.617 8.31-5.773 9.278l-7.79 1.814 3.073 6.762c.958 2.108.921 4.535-.103 6.612s-2.925 3.586-5.18 4.111l-16.973 3.951c-.588.135-1.178.2-1.757.2z" fill="#eab124"/></g><g><path d="m335.765 176.437c-3.512.001-6.688-2.409-7.519-5.976-.967-4.156 1.617-8.309 5.774-9.277l7.789-1.813-3.073-6.761c-.958-2.108-.921-4.534.103-6.611 1.023-2.077 2.924-3.586 5.179-4.111l16.973-3.953c4.159-.967 8.31 1.617 9.278 5.773s-1.617 8.31-5.773 9.278l-7.79 1.814 3.073 6.762c.958 2.108.921 4.534-.103 6.612-1.023 2.077-2.924 3.586-5.18 4.111l-16.974 3.951c-.588.135-1.178.201-1.757.201z" fill="#eab124"/></g></g></g></g></svg>