<svg id="Layer_1" enable-background="new 0 0 512 512" height="512" viewBox="0 0 512 512" width="512" xmlns="http://www.w3.org/2000/svg"><g><ellipse cx="256.003" cy="256.003" fill="#c8effe" rx="201.738" ry="201.743"/><path d="m256.003 54.26c-5.199 0-10.352.198-15.453.584 104.197 7.893 186.286 94.939 186.286 201.159s-82.089 193.266-186.286 201.159c5.1.386 10.253.584 15.453.584 111.417 0 201.738-90.323 201.738-201.743s-90.321-201.743-201.738-201.743z" fill="#99e6fc"/><path d="m256.003 46.76c-115.374 0-209.238 93.866-209.238 209.243 0 115.376 93.864 209.242 209.238 209.242s209.238-93.866 209.238-209.242c0-115.377-93.864-209.243-209.238-209.243zm143.893 339.582c-7.789-2.806-16.072-5.354-24.77-7.64 17.018-33.456 26.644-73.268 27.671-115.199h47.285c-1.8 47.166-20.485 90.079-50.186 122.839zm-287.757.034c-29.719-32.765-48.415-75.691-50.216-122.873h47.285c1.028 41.944 10.659 81.766 27.686 115.229-8.692 2.287-16.971 4.837-24.755 7.644zm-.112-260.619c7.795 2.816 16.084 5.375 24.791 7.669-16.979 33.431-26.583 73.196-27.61 115.077h-47.285c1.799-47.122 20.451-89.998 50.104-122.746zm204.163 122.746c-.35-37.201-3.303-72.698-8.527-103.441 18.465-1.749 36.111-4.442 52.537-8.011 16.378 31.044 26.507 69.569 27.592 111.452zm-105.375 0c.353-36.932 3.309-72.056 8.534-102.248 11.989.79 24.262 1.195 36.717 1.195 12.411 0 24.642-.402 36.591-1.187 5.223 30.19 8.179 65.312 8.532 102.24zm90.375 15c-.354 36.997-3.319 72.181-8.561 102.409-11.942-.784-24.163-1.186-36.562-1.186-12.442 0-24.706.405-36.688 1.195-5.243-30.23-8.209-65.418-8.563-102.419h90.374zm3.71-133.244c-1.342-6.546-2.795-12.828-4.357-18.807-5.128-19.62-11.19-34.943-18.017-45.746 27.24 8.222 51.441 28.859 69.762 57.693-14.887 3.034-30.788 5.337-47.388 6.86zm-18.87-15.013c1.348 5.159 2.61 10.562 3.789 16.169-11.027.683-22.304 1.036-33.753 1.036-11.492 0-22.812-.355-33.878-1.043 1.179-5.605 2.44-11.005 3.788-16.162 10.317-39.478 22.624-53.486 30.027-53.486s19.709 14.008 30.027 53.486zm-56.55-49.54c-6.827 10.803-12.889 26.127-18.017 45.746-1.562 5.975-3.014 12.253-4.355 18.796-16.597-1.527-32.494-3.834-47.376-6.871 18.32-28.823 42.515-49.451 69.748-57.671zm-25.136 79.344c-5.225 30.746-8.179 66.247-8.529 103.453h-71.602c1.086-41.894 11.219-80.428 27.605-111.476 16.42 3.572 34.063 6.27 52.526 8.023zm-80.131 118.453h71.602c.351 37.275 3.315 72.839 8.558 103.624-18.44 1.751-36.065 4.444-52.473 8.01-16.434-31.076-26.599-69.67-27.687-111.634zm82.93 118.423c1.332 6.481 2.772 12.703 4.32 18.627 5.128 19.62 11.19 34.943 18.017 45.746-27.185-8.205-51.342-28.774-69.65-57.516 14.867-3.029 30.742-5.333 47.313-6.857zm18.833 14.834c-1.334-5.105-2.584-10.448-3.752-15.992 11.057-.687 22.365-1.042 33.843-1.042 11.435 0 22.7.352 33.717 1.034-1.169 5.547-2.419 10.893-3.753 16-10.318 39.478-22.624 53.485-30.027 53.485s-19.711-14.008-30.028-53.485zm56.55 49.539c6.827-10.803 12.889-26.127 18.017-45.746 1.549-5.927 2.99-12.153 4.322-18.638 16.575 1.52 32.455 3.819 47.326 6.845-18.31 28.754-42.473 49.332-69.665 57.539zm25.109-79.186c5.241-30.782 8.204-66.341 8.555-103.61h71.603c-1.088 41.952-11.247 80.536-27.673 111.607-16.413-3.561-34.042-6.25-52.485-7.997zm95.163-118.61c-1.026-41.869-10.625-81.623-27.595-115.048 8.712-2.292 17.008-4.849 24.808-7.663 29.634 32.744 48.275 75.606 50.073 122.711zm-14.464-134.548c-6.556 2.163-13.445 4.148-20.624 5.949-2.226-3.702-4.546-7.313-6.968-10.818-8.365-12.107-17.591-22.563-27.48-31.281 20.411 8.884 39.007 21.173 55.072 36.15zm-237.07-4.869c-2.416 3.496-4.73 7.099-6.952 10.791-7.174-1.803-14.057-3.788-20.608-5.953 16.057-14.963 34.643-27.242 55.04-36.12-9.889 8.719-19.115 19.175-27.48 31.282zm-27.422 289.123c6.538-2.155 13.403-4.136 20.561-5.932 2.194 3.64 4.477 7.193 6.861 10.642 8.365 12.107 17.591 22.563 27.48 31.281-20.339-8.852-38.876-21.086-54.902-35.991zm236.9 4.71c2.389-3.458 4.678-7.02 6.877-10.669 7.163 1.795 14.035 3.773 20.578 5.927-16.034 14.919-34.583 27.164-54.936 36.023 9.89-8.718 19.116-19.173 27.481-31.281z" fill="#62dbfb"/><g fill="#fe646f"><path d="m274.574 166.729-53.466-21.569c-2.929-1.182-3.522-5.069-1.08-7.071l15.314-12.552c6.8-5.574 15.443-8.397 24.222-7.911l40.837 2.259z"/><path d="m345.279 237.435 21.568 53.467c1.181 2.929 5.068 3.523 7.07 1.08l12.551-15.314c5.574-6.801 8.396-15.443 7.911-24.223l-2.259-40.838z"/></g><path d="m454.745 167.199c-36.76 36.76-109.937 77.49-109.937 77.49l-77.489-77.49s40.729-73.179 77.489-109.939c60.491-60.492 155.748-58.842 165.102-56.352.578.154 1.027.603 1.181 1.181 2.491 9.354 4.146 104.618-56.346 165.11z" fill="#eef5f6"/><path d="m511.091 2.089c-.154-.578-.603-1.027-1.181-1.181-2.241-.597-9.425-1.143-19.872-.799-1.088 33.15-11.151 99.241-57.146 145.237-36.76 36.76-109.937 77.49-109.937 77.49l21.853 21.854s73.177-40.73 109.937-77.49c60.492-60.493 58.837-155.757 56.346-165.111z" fill="#deecf1"/><path d="m444.668 5.87 61.464 61.466c7.274-33.408 6.228-60.48 4.959-65.246-.154-.578-.603-1.027-1.181-1.181-4.766-1.27-31.836-2.315-65.242 4.961z" fill="#fe646f"/><path d="m484.279 45.482 21.853 21.854c7.274-33.408 6.228-60.48 4.959-65.246-.154-.578-.603-1.027-1.181-1.181-2.242-.597-9.421-1.143-19.872-.799-.388 11.766-1.906 27.679-5.759 45.372z" fill="#fd4755"/><g><path d="m309.594 260.681-58.265-58.266c-2.222-2.222-2.61-5.686-.935-8.345l16.926-26.871 77.489 77.49-26.87 16.926c-2.659 1.676-6.123 1.288-8.345-.934z" fill="#fe646f"/><path d="m322.955 222.836-31.416 19.79 18.054 18.055c2.222 2.222 5.686 2.61 8.344.935l26.87-16.926z" fill="#fd4755"/></g><circle cx="394.105" cy="117.902" fill="#c8effe" r="31.936"/><path d="m421.99 90.017c-7.449-7.449-17.352-11.551-27.886-11.551-10.533 0-20.436 4.102-27.885 11.551-15.376 15.376-15.376 40.395 0 55.771 7.688 7.688 17.787 11.532 27.886 11.532 10.098 0 20.196-3.844 27.885-11.532 15.376-15.377 15.376-40.395 0-55.771zm-10.607 45.164c-9.527 9.529-25.028 9.527-34.556 0-9.528-9.528-9.528-25.03 0-34.558 4.615-4.616 10.751-7.157 17.277-7.157 6.527 0 12.663 2.542 17.278 7.157 9.529 9.528 9.529 25.03.001 34.558z" fill="#918291"/><path d="m255.925 245.172c5.263 1.546 9.352 5.635 10.898 10.898 4.875 16.592 8.591 58.572-48.132 115.296-62.505 62.506-178.317 122.827-213.11 140.212-3.307 1.652-6.811-1.852-5.159-5.159 17.385-34.793 77.704-150.608 140.208-213.114 56.724-56.724 98.703-53.009 115.295-48.133z" fill="#ffd15b"/><path d="m266.823 256.07c-1.546-5.263-5.635-9.352-10.898-10.898-7.123-2.093-18.929-3.968-34.568-.943 1.331.297 2.555.617 3.663.943 5.263 1.546 9.352 5.635 10.898 10.898 4.875 16.592 8.591 58.572-48.132 115.296-49.394 49.395-132.068 97.418-181.751 123.974-2.187 4.263-4.072 7.995-5.612 11.079-1.652 3.307 1.852 6.811 5.159 5.159 34.792-17.385 150.605-77.706 213.109-140.211 56.722-56.725 53.007-98.705 48.132-115.297z" fill="#ffc344"/></g></svg>